<svg xmlns="http://www.w3.org/2000/svg" viewBox="0 0 1440 480" role="img" aria-labelledby="t d"><title id="t">Estudo com método</title><desc id="d">Ilustração abstrata de uma mesa de estudos e um gráfico de mercado.</desc><defs><linearGradient id="bg" x2="1" y2="1"><stop stop-color="#e9ece8"/><stop offset="1" stop-color="#cbd2cc"/></linearGradient></defs><rect width="1440" height="480" fill="url(#bg)"/><circle cx="1170" cy="180" r="210" fill="#f7f8f6" opacity=".5"/><rect x="790" y="100" width="480" height="260" rx="18" fill="#27312c"/><rect x="814" y="124" width="432" height="210" rx="8" fill="#e6ebe7"/><path d="M840 290l70-54 62 23 74-96 65 50 81-72" fill="none" stroke="#526b5c" stroke-width="9"/><path d="M780 368h500l55 32H730z" fill="#88968c"/><rect x="850" y="390" width="340" height="18" rx="9" fill="#6c796f"/><path d="M260 330h360l-30 24H290z" fill="#808c82"/><path d="M300 326l35-124h210l35 124z" fill="#fafbf9" stroke="#68766d" stroke-width="8"/><path d="M335 225h210M323 268h235M312 307h256" stroke="#c7cec8" stroke-width="6"/><path d="M250 350h400v16H250z" fill="#59665d"/><rect x="685" y="260" width="42" height="100" rx="5" fill="#77847a"/><path d="M706 260c-50-8-58-38-53-66 38 4 58 25 53 66zm0-5c7-46 38-67 69-61-2 39-27 62-69 61z" fill="#627d68"/></svg>
